# Blender v2.82 (sub 7) OBJ File: ''
# www.blender.org
mtllib beard.mtl
o Beard_01
v -0.067107 0.010767 -0.003783
v -0.053038 0.029548 -0.014534
v -0.053096 0.030852 -0.021442
v -0.067107 0.011419 -0.025346
v 0.049744 0.013566 -0.021432
v 0.035253 0.038787 -0.021432
v 0.052297 0.032445 -0.021442
v 0.067105 0.011419 -0.025346
v 0.052239 0.031140 -0.014534
v 0.067105 0.010767 -0.003783
v 0.047268 -0.093866 -0.026040
v 0.063024 -0.084451 -0.031413
v 0.063024 -0.084451 -0.011370
v 0.047268 -0.093866 -0.001523
v -0.035253 0.038787 -0.021432
v -0.034951 0.037743 -0.008238
v -0.054556 -0.036082 0.006726
v -0.055132 -0.011656 0.006764
v -0.073418 -0.011656 -0.003933
v -0.072674 -0.034235 -0.005841
v 0.072568 -0.032592 -0.026805
v 0.073273 -0.011656 -0.026805
v 0.073417 -0.011656 -0.003933
v 0.072673 -0.032592 -0.006153
v 0.054819 -0.035299 -0.019583
v 0.055494 -0.011656 -0.021432
v -0.073273 -0.011656 -0.026805
v -0.072569 -0.034235 -0.026805
v -0.054820 -0.036082 -0.019583
v -0.055494 -0.011656 -0.021432
v -0.029850 -0.009521 -0.021432
v -0.033254 -0.039638 -0.019583
v -0.016606 -0.036457 -0.016633
v -0.014897 -0.006737 -0.021432
v 0.000005 -0.005289 -0.021432
v 0.000002 -0.039099 -0.016633
v 0.016700 -0.032375 -0.016633
v 0.014988 -0.006752 -0.021432
v 0.029859 -0.009521 -0.021432
v 0.033257 -0.040622 -0.019583
v 0.014887 -0.008102 0.012626
v 0.000005 -0.006935 0.015226
v -0.014797 -0.008091 0.012642
v -0.029608 -0.010049 0.010377
v -0.032996 0.002558 -0.021432
v -0.032827 0.002070 0.008090
v 0.021838 0.042834 -0.021432
v 0.021529 0.042330 -0.006963
v 0.034952 0.037738 -0.008245
v 0.000004 0.016801 0.012173
v -0.027182 0.018918 0.006785
v -0.026221 0.014190 0.005800
v 0.000004 0.012148 0.009878
v -0.026269 0.014638 -0.021432
v -0.021838 0.042834 -0.021432
v 0.000000 0.045494 -0.021432
v 0.000004 0.012951 -0.021432
v -0.047268 -0.096587 -0.026040
v -0.031512 -0.113090 -0.026040
v -0.031512 -0.113090 0.004824
v -0.047268 -0.096587 -0.002484
v -0.015756 -0.109203 -0.026040
v 0.000000 -0.122122 -0.026040
v 0.000000 -0.122122 0.004892
v -0.015756 -0.109203 0.004892
v 0.015841 -0.094973 -0.026040
v 0.031512 -0.116511 -0.026040
v 0.031512 -0.116511 0.004892
v 0.015841 -0.094973 0.004892
v -0.049710 0.013043 0.003047
v 0.027434 0.018563 0.006852
v 0.026229 0.014188 0.005794
v 0.000000 0.045494 -0.004623
v -0.049746 0.013566 -0.021432
v 0.049709 0.013041 0.003039
v 0.026276 0.014638 -0.021432
v 0.055131 -0.011656 0.006764
v 0.054555 -0.035299 0.005604
v -0.063024 -0.090166 -0.031413
v -0.063024 -0.090166 -0.011370
v -0.016510 -0.039960 0.014118
v -0.014770 -0.013523 0.016426
v -0.032078 -0.015801 0.013221
v -0.034163 -0.042643 0.012979
v -0.021527 0.042334 -0.006954
v 0.032170 -0.015683 0.013268
v 0.034204 -0.043574 0.015693
v 0.016601 -0.035668 0.019377
v 0.014856 -0.013533 0.016424
v 0.000005 -0.012391 0.018866
v 0.000002 -0.042628 0.021491
v -0.070190 -0.000118 -0.025346
v -0.052620 0.000955 -0.021432
v 0.033004 0.002558 -0.021432
v 0.052619 0.000955 -0.021432
v 0.070261 -0.000444 -0.003858
v 0.052420 0.000693 0.004902
v -0.052421 0.000694 0.003223
v -0.070262 -0.000444 -0.005541
v 0.070189 -0.000118 -0.025346
v -0.035033 -0.075210 -0.021432
v -0.017504 -0.071619 -0.021432
v -0.000001 -0.079918 0.017499
v -0.017450 -0.072249 0.016073
v -0.000001 -0.079159 -0.021432
v 0.017599 -0.062663 -0.021432
v 0.034898 -0.077613 0.014827
v 0.017543 -0.063292 0.016065
v -0.034899 -0.075459 0.014771
v -0.052563 -0.065140 0.005492
v -0.069991 -0.061097 -0.026805
v -0.052705 -0.065140 -0.021432
v 0.035032 -0.077365 -0.021432
v 0.052704 -0.063427 -0.021432
v 0.070046 -0.057498 -0.005728
v 0.052561 -0.063427 0.006278
v -0.070047 -0.061097 -0.005728
v 0.069990 -0.057498 -0.026805
v -0.036639 0.001533 0.009869
v 0.029618 -0.010049 0.010377
v 0.032836 0.002069 0.008087
v 0.036653 0.001531 0.009864
vt 0.661467 0.624479
vt 0.702085 0.557876
vt 0.725876 0.554984
vt 0.735042 0.626581
vt 0.416536 0.100531
vt 0.364225 0.018334
vt 0.423074 0.037500
vt 0.476030 0.106090
vt 0.735262 0.958987
vt 0.745416 0.903841
vt 0.769162 0.903963
vt 0.808861 0.958987
vt 0.641927 0.657514
vt 0.653542 0.709837
vt 0.585689 0.701523
vt 0.558928 0.647345
vt 0.744858 0.611846
vt 0.746115 0.554984
vt 0.769861 0.555490
vt 0.789989 0.613032
vt 0.575433 0.263123
vt 0.564926 0.343417
vt 0.499730 0.339486
vt 0.509561 0.265827
vt 0.616375 0.876446
vt 0.608264 0.940102
vt 0.530807 0.930815
vt 0.546440 0.868026
vt 0.439431 0.262191
vt 0.439040 0.183712
vt 0.499730 0.182227
vt 0.499730 0.251888
vt 0.659310 0.775412
vt 0.657358 0.701287
vt 0.735262 0.705714
vt 0.730715 0.779483
vt 0.065646 0.277099
vt 0.060565 0.196170
vt 0.147767 0.186196
vt 0.139596 0.286497
vt 0.195967 0.273776
vt 0.198438 0.175264
vt 0.249088 0.168779
vt 0.252904 0.280693
vt 0.309073 0.256471
vt 0.300349 0.171960
vt 0.351378 0.179494
vt 0.366515 0.282302
vt 0.121942 0.608487
vt 0.238235 0.607599
vt 0.238687 0.657676
vt 0.113484 0.658217
vt 0.122336 0.706874
vt 0.238687 0.706653
vt 0.238481 0.755416
vt 0.129976 0.755341
vt 0.425476 0.661669
vt 0.425476 0.767503
vt 0.392634 0.767970
vt 0.392708 0.669745
vt 0.744553 0.845530
vt 0.743992 0.799907
vt 0.793389 0.798902
vt 0.789664 0.844719
vt 0.742963 0.456043
vt 0.648643 0.454447
vt 0.653236 0.439470
vt 0.743864 0.441301
vt 0.157204 0.105500
vt 0.169076 0.011292
vt 0.243240 0.000000
vt 0.246990 0.108158
vt 0.099626 0.615103
vt 0.105002 0.686578
vt 0.000000 0.694360
vt 0.019487 0.621042
vt 0.108448 0.727220
vt 0.113484 0.793276
vt 0.008251 0.801075
vt 0.003214 0.735019
vt 0.264519 0.751379
vt 0.345586 0.751684
vt 0.345586 0.854586
vt 0.264519 0.854281
vt 0.573394 0.427787
vt 0.610998 0.517550
vt 0.550753 0.485537
vt 0.513233 0.415675
vt 0.833332 0.473296
vt 0.830459 0.458707
vt 0.727527 0.554984
vt 0.800636 0.553060
vt 0.345586 0.557518
vt 0.345536 0.637893
vt 0.238687 0.638703
vt 0.252660 0.557986
vt 0.077269 0.111698
vt 0.123795 0.026248
vt 0.909321 0.464256
vt 0.847194 0.543181
vt 0.318014 0.006389
vt 0.336386 0.099602
vt 1.000000 0.324647
vt 0.995874 0.393355
vt 0.937496 0.383869
vt 0.943478 0.306024
vt 0.653542 0.567814
vt 0.548826 0.554984
vt 0.966724 0.464914
vt 0.905917 0.529407
vt 0.113484 0.557518
vt 0.045296 0.562572
vt 0.004993 0.273640
vt 0.000000 0.198676
vt 0.707704 0.262378
vt 0.705041 0.349561
vt 0.646336 0.336535
vt 0.648635 0.247354
vt 0.744181 0.655147
vt 0.793605 0.656196
vt 0.018360 0.121154
vt 0.063861 0.054624
vt 0.451125 0.557518
vt 0.451125 0.661637
vt 0.345586 0.661669
vt 0.345586 0.557550
vt 0.863399 0.360482
vt 0.880833 0.268662
vt 0.655155 0.537275
vt 0.819753 0.287308
vt 0.805147 0.360398
vt 0.755344 0.358080
vt 0.766783 0.257727
vt 0.345586 0.768503
vt 0.345802 0.677896
vt 0.345586 0.713153
vt 0.252680 0.713343
vt 0.009171 0.159844
vt 0.068917 0.153934
vt 0.360716 0.138995
vt 0.427788 0.142121
vt 0.981299 0.429136
vt 0.923408 0.424064
vt 0.135652 0.146404
vt 0.568624 0.386040
vt 0.505947 0.378020
vt 0.599514 0.969750
vt 0.595703 1.000000
vt 0.522953 0.989104
vt 0.526880 0.959961
vt 0.487872 0.144088
vt 0.665145 0.663212
vt 0.732668 0.666002
vt 0.154046 0.531037
vt 0.137636 0.405098
vt 0.196998 0.391196
vt 0.207329 0.516350
vt 0.789385 0.000000
vt 0.778588 0.135843
vt 0.716483 0.155091
vt 0.731613 0.036805
vt 0.262541 0.557518
vt 0.257550 0.414291
vt 0.315673 0.357490
vt 0.313442 0.465509
vt 0.893892 0.030056
vt 0.894848 0.156938
vt 0.831575 0.197456
vt 0.833382 0.095303
vt 0.679717 0.018229
vt 0.658236 0.138447
vt 0.591972 0.168390
vt 0.618358 0.068745
vt 0.044019 0.458896
vt 0.016869 0.362628
vt 0.076217 0.373614
vt 0.098422 0.477957
vt 0.369355 0.535333
vt 0.376809 0.404396
vt 0.435471 0.356089
vt 0.420483 0.458303
vt 0.554989 0.789636
vt 0.519918 0.742594
vt 0.499730 0.672020
vt 0.666996 0.955267
vt 0.653542 0.862254
vt 0.725331 0.866372
vt 0.735262 0.959210
vt 0.493799 0.334954
vt 0.473194 0.425754
vt 0.626353 0.798300
vt 0.527900 0.178216
vt 0.560034 0.086438
vt 0.623773 0.392870
vt 0.451125 0.557518
vt 0.493515 0.565829
vt 0.493515 0.664045
vt 0.451160 0.663354
vt 0.129085 0.559044
vt 0.237583 0.557518
vt 0.244503 0.751240
vt 0.345233 0.751379
vt 0.871420 0.419753
vt 0.802136 0.379298
vt 0.752270 0.377010
vt 0.701837 0.368440
vt 0.651757 0.357140
vt 0.857768 0.420588
vt 0.851877 0.378868
vt 0.635898 0.396501
vt 0.946827 0.212400
vt 1.000000 0.241476
vt 0.743679 0.726764
vt 0.800974 0.726618
vn -0.8014 0.5965 0.0426
vn -0.1098 0.0143 -0.9938
vn 0.8088 0.5866 0.0420
vn 0.5129 -0.8584 -0.0000
vn -0.4233 0.8990 0.1126
vn -0.5396 -0.0499 0.8404
vn 0.9994 -0.0343 -0.0057
vn -0.3320 -0.0288 -0.9428
vn -0.9995 -0.0318 -0.0057
vn -0.0020 -0.0675 -0.9977
vn -0.0057 -0.1492 -0.9888
vn -0.1369 -0.1275 -0.9824
vn 0.0913 0.9949 0.0423
vn -0.1594 0.9868 0.0290
vn 0.9672 0.2542 -0.0023
vn 0.3085 0.9493 0.0601
vn -0.1897 -0.3413 0.9206
vn 0.0000 0.0000 -1.0000
vn -0.7233 -0.6905 -0.0000
vn -0.6341 -0.7733 -0.0000
vn -0.8086 -0.5883 -0.0000
vn -0.4267 0.6177 0.6606
vn 0.1858 -0.3638 0.9128
vn 0.1472 0.5108 0.8470
vn -0.0692 -0.9974 -0.0213
vn 0.2651 0.5301 0.8054
vn 0.3687 0.9224 0.1146
vn 0.5276 -0.0797 0.8457
vn 0.0045 -0.0672 -0.9977
vn 0.8209 -0.5711 -0.0000
vn 0.4123 0.6043 0.6818
vn -0.3774 -0.9261 -0.0000
vn 0.3327 -0.0273 -0.9426
vn -0.1178 -0.0390 0.9923
vn -0.3084 0.9494 0.0598
vn 0.1052 0.0198 -0.9943
vn 0.8637 -0.5040 0.0000
vn 0.3494 0.0329 0.9364
vn 0.0263 -0.1586 -0.9870
vn -0.2670 0.5314 0.8040
vn 0.2395 -0.9709 -0.0000
vn 0.1227 0.1091 0.9864
vn 0.1146 -0.1194 -0.9862
vn 0.8754 -0.4833 -0.0113
vn 0.0692 -0.9974 -0.0213
vn 0.2232 -0.0551 -0.9732
vn 0.4123 0.1706 0.8950
vn 0.2242 0.1209 0.9670
vn -0.0909 0.9950 0.0423
vn -0.4076 0.0402 0.9123
vn 0.9644 0.2646 0.0007
vn 0.9644 0.2645 0.0044
vn 0.9644 0.2646 0.0008
vn -0.2232 -0.0551 -0.9732
vn -0.9644 0.2643 0.0008
vn -0.9645 0.2641 0.0046
vn -0.9648 0.2628 0.0041
vn -0.0268 0.1193 -0.9925
vn -0.2169 -0.2852 0.9336
vn -0.1614 0.1236 -0.9791
vn -0.2485 -0.2611 0.9328
vn -0.5937 -0.2712 0.7576
vn 0.3624 0.2125 -0.9075
vn -0.1645 0.1503 -0.9749
vn 0.6172 -0.3026 0.7263
vn 0.0183 -0.2714 0.9623
vn 0.4141 -0.2875 0.8636
vn 0.6228 -0.2662 0.7357
vn 0.1286 0.1175 -0.9847
vn 0.0707 0.1149 -0.9909
vn 0.1157 0.1456 -0.9826
vn -0.9723 -0.2337 -0.0013
vn -0.3954 0.2283 -0.8897
vn 0.9680 -0.2509 -0.0013
vn -0.5604 -0.2888 0.7762
vn -0.2982 0.1982 0.9337
vn -0.2986 0.0145 0.9543
vn -0.2542 -0.0043 -0.9671
vn 0.9643 0.2647 -0.0028
vn -0.9672 0.2541 -0.0022
vn 0.4706 0.1827 0.8632
vn 0.1594 0.9868 0.0290
vn -0.9644 0.2645 -0.0029
vn -0.4600 0.2974 0.8366
vn 0.2542 -0.0043 -0.9671
vn -0.2801 0.0030 0.9600
vn -0.8753 -0.4834 -0.0113
vn -0.2911 0.2212 0.9308
vn 0.2580 0.2592 0.9307
vn 0.1808 0.5545 0.8123
vn -0.2099 0.5320 0.8203
vn -0.3833 0.2720 0.8827
vn 0.3807 0.2699 0.8844
vn 0.2067 0.5402 0.8158
vn -0.1809 0.5538 0.8128
vn -0.1451 0.5119 0.8467
vn -0.4439 -0.0785 0.8926
vn 0.4458 -0.0803 0.8915
vn 0.2689 0.1533 0.9509
vn -0.3776 0.0007 0.9260
vn -0.2578 -0.0248 0.9659
vn 0.0987 -0.0647 0.9930
vn 0.0678 0.0908 -0.9936
vn 0.1760 -0.1076 0.9785
vn -0.0904 0.1335 -0.9869
vn 0.4459 -0.0121 0.8950
vn -0.0792 0.0593 0.9951
vn 0.3466 0.0600 -0.9361
vn -0.0280 0.0570 -0.9980
vn 0.5602 -0.0317 0.8278
vn -0.0203 0.0979 -0.9950
vn 0.0376 0.1260 -0.9913
vn 0.0199 0.0572 -0.9982
vn -0.9953 -0.0964 -0.0038
vn -0.3515 0.0637 -0.9340
vn 0.9946 -0.1040 -0.0038
vn -0.5616 -0.0629 0.8250
vn 0.1340 0.9908 0.0173
vn -0.1339 0.9908 0.0172
usemtl Material.001
s 1
f 1/1/1 2/2/1 3/3/1 4/4/1
f 5/5/2 6/6/2 7/7/2 8/8/2
f 8/9/3 7/10/3 9/11/3 10/12/3
f 11/13/4 12/14/4 13/15/4 14/16/4
f 15/17/5 3/18/5 2/19/5 16/20/5
f 17/21/6 18/22/6 19/23/6 20/24/6
f 21/25/7 22/26/7 23/27/7 24/28/7
f 25/29/8 26/30/8 22/31/8 21/32/8
f 20/33/9 19/34/9 27/35/9 28/36/9
f 29/37/10 30/38/10 31/39/10 32/40/10
f 33/41/11 34/42/11 35/43/11 36/44/11
f 37/45/12 38/46/12 39/47/12 40/48/12
f 41/49/13 38/50/13 35/51/13 42/52/13
f 43/53/14 34/54/14 31/55/14 44/56/14
f 44/57/15 31/58/15 45/59/15 46/60/15
f 6/61/16 47/62/16 48/63/16 49/64/16
f 50/65/17 51/66/17 52/67/17 53/68/17
f 54/69/18 55/70/18 56/71/18 57/72/18
f 58/73/19 59/74/19 60/75/19 61/76/19
f 62/77/20 63/78/20 64/79/20 65/80/20
f 66/81/21 67/82/21 68/83/21 69/84/21
f 70/85/22 16/86/22 2/87/22 1/88/22
f 71/89/23 50/65/23 53/68/23 72/90/23
f 73/91/24 50/65/24 71/89/24 48/92/24
f 54/93/25 57/94/25 53/95/25 52/96/25
f 74/97/18 15/98/18 55/70/18 54/69/18
f 75/99/26 49/100/26 48/92/26 71/89/26
f 57/72/18 56/71/18 47/101/18 76/102/18
f 7/10/27 6/61/27 49/64/27 9/11/27
f 24/103/28 23/104/28 77/105/28 78/106/28
f 40/48/29 39/47/29 26/30/29 25/29/29
f 67/107/30 11/13/30 14/16/30 68/108/30
f 10/109/31 9/110/31 49/100/31 75/99/31
f 76/102/18 47/101/18 6/6/18 5/5/18
f 79/111/32 58/73/32 61/76/32 80/112/32
f 28/113/33 27/114/33 30/38/33 29/37/33
f 81/115/34 82/116/34 83/117/34 84/118/34
f 55/119/35 15/17/35 16/20/35 85/120/35
f 4/121/36 3/122/36 15/98/36 74/97/36
f 63/123/37 66/124/37 69/125/37 64/126/37
f 78/106/38 77/105/38 86/127/38 87/128/38
f 36/44/39 35/43/39 38/46/39 37/45/39
f 51/66/40 85/129/40 16/86/40 70/85/40
f 59/74/41 62/77/41 65/80/41 60/75/41
f 88/130/42 89/131/42 90/132/42 91/133/42
f 32/40/43 31/39/43 34/42/43 33/41/43
f 46/60/44 45/59/44 54/134/44 52/135/44
f 57/94/45 76/136/45 72/137/45 53/95/45
f 92/138/46 4/121/46 74/97/46 93/139/46
f 94/140/18 76/102/18 5/5/18 95/141/18
f 96/142/47 10/109/47 75/99/47 97/143/47
f 87/128/48 86/127/48 89/131/48 88/130/48
f 34/54/49 43/53/49 42/52/49 35/51/49
f 93/139/18 74/97/18 54/69/18 45/144/18
f 98/145/50 70/85/50 1/88/50 99/146/50
f 100/147/51 8/148/52 10/149/52 96/150/53
f 95/141/54 5/5/54 8/8/54 100/151/54
f 99/152/55 1/1/56 4/4/56 92/153/57
f 59/154/58 101/155/58 102/156/58 62/157/58
f 64/158/59 103/159/59 104/160/59 65/161/59
f 63/162/60 105/163/60 106/164/60 66/165/60
f 68/166/61 107/167/61 108/168/61 69/169/61
f 60/170/62 109/171/62 110/172/62 61/173/62
f 79/174/63 111/175/63 112/176/63 58/177/63
f 67/178/64 113/179/64 114/180/64 11/181/64
f 13/15/65 115/182/65 116/183/65 14/16/65
f 65/161/66 104/160/66 109/171/66 60/170/66
f 69/169/67 108/168/67 103/159/67 64/158/67
f 14/16/68 116/183/68 107/184/68 68/108/68
f 66/165/69 106/164/69 113/179/69 67/178/69
f 62/157/70 102/156/70 105/163/70 63/162/70
f 58/177/71 112/176/71 101/155/71 59/154/71
f 80/185/72 117/186/72 111/187/72 79/188/72
f 11/181/73 114/180/73 118/189/73 12/190/73
f 12/14/74 118/191/74 115/182/74 13/15/74
f 61/173/75 110/172/75 117/192/75 80/193/75
f 83/117/76 119/194/76 98/145/76 18/22/76
f 91/133/77 90/132/77 82/116/77 81/115/77
f 26/30/78 95/141/78 100/151/78 22/31/78
f 22/26/79 100/147/51 96/150/53 23/27/79
f 120/195/80 121/196/80 94/197/80 39/198/80
f 23/104/81 96/142/81 97/143/81 77/105/81
f 39/47/18 94/140/18 95/141/18 26/30/18
f 38/50/82 41/49/82 120/199/82 39/200/82
f 19/34/83 99/152/55 92/153/57 27/35/83
f 18/22/84 98/145/84 99/146/84 19/23/84
f 30/38/18 93/139/18 45/144/18 31/39/18
f 27/114/85 92/138/85 93/139/85 30/38/85
f 84/118/86 83/117/86 18/22/86 17/21/86
f 121/201/87 72/137/87 76/136/87 94/202/87
f 119/194/88 51/66/88 70/85/88 98/145/88
f 97/143/89 75/99/89 71/89/89 122/203/89
f 41/204/90 42/205/90 90/132/90 89/131/90
f 43/206/91 44/207/91 83/117/91 82/116/91
f 121/208/92 120/209/92 86/127/92 122/203/92
f 119/194/93 83/117/93 44/207/93 46/210/93
f 120/209/94 41/204/94 89/131/94 86/127/94
f 42/205/95 43/206/95 82/116/95 90/132/95
f 50/65/96 73/91/96 85/129/96 51/66/96
f 72/90/97 121/208/97 122/203/97 71/89/97
f 51/66/98 119/194/98 46/210/98 52/67/98
f 77/105/99 97/143/99 122/203/99 86/127/99
f 109/171/100 84/118/100 17/21/100 110/172/100
f 103/159/101 91/133/101 81/115/101 104/160/101
f 107/167/102 87/128/102 88/130/102 108/168/102
f 101/155/103 32/40/103 33/41/103 102/156/103
f 108/168/104 88/130/104 91/133/104 103/159/104
f 105/163/105 36/44/105 37/45/105 106/164/105
f 116/211/106 78/106/106 87/128/106 107/167/106
f 104/160/107 81/115/107 84/118/107 109/171/107
f 111/175/108 28/113/108 29/37/108 112/176/108
f 113/179/109 40/48/109 25/29/109 114/180/109
f 115/212/110 24/103/110 78/106/110 116/211/110
f 106/164/111 37/45/111 40/48/111 113/179/111
f 102/156/112 33/41/112 36/44/112 105/163/112
f 112/176/113 29/37/113 32/40/113 101/155/113
f 117/186/114 20/33/114 28/36/114 111/187/114
f 114/180/115 25/29/115 21/32/115 118/189/115
f 118/191/116 21/25/116 24/28/116 115/182/116
f 110/172/117 17/21/117 20/24/117 117/192/117
f 47/62/118 56/213/118 73/214/118 48/63/118
f 56/213/119 55/119/119 85/120/119 73/214/119
